<svg width="159" height="159" viewBox="0 0 159 159" fill="none" xmlns="http://www.w3.org/2000/svg">
<path d="M75.9852 9.6591C73.1928 9.28069 70.3166 8.89092 67.2612 8.68169C58.6056 7.94134 49.7045 8.43217 41.0494 9.917C41.3424 9.74883 41.6365 9.58279 41.932 9.41887C53.0987 3.4202 65.8645 0.0125069 79.4251 0C93.2137 0.0127366 107.057 3.53327 118.938 10.6574H87.0406C83.3521 10.6574 79.7446 10.1686 75.9852 9.6591Z" fill="#00ADEF"/>
<path d="M123.306 13.1473C120.03 13.3333 116.948 13.3246 113.867 13.316C109.408 13.3034 104.949 13.2908 99.9012 13.8681C76.4723 16.3321 54.5202 18.5482 31.838 15.8656C30.2099 17.087 28.6302 18.3694 27.1023 19.7095C26.5324 20.3193 25.9913 20.9335 25.4723 21.5256C41.0507 19.7954 56.3793 19.0551 72.2072 20.5399C79.7634 20.9059 87.0444 21.6855 94.3588 22.4686C96.8574 22.7361 99.36 23.0041 101.879 23.2561C113.007 23.751 124.381 23.751 136.004 23.751C133.636 21.3849 131.066 19.0188 128.359 16.7815C126.725 15.5064 125.039 14.2938 123.306 13.1473Z" fill="#00ADEF"/>
<path d="M144.351 33.5043C142.896 31.5318 141.543 29.9422 140.078 28.2214C139.796 27.89 139.509 27.5536 139.217 27.2088C136.378 27.2088 133.46 27.1703 130.492 27.1311C122.865 27.0303 114.903 26.9252 107.07 27.4583C103.545 27.8097 100.114 28.2558 96.7322 28.6954C90.6271 29.4891 84.682 30.262 78.6347 30.42C60.8287 31.1643 43.5223 30.9149 25.7162 30.42C23.2434 30.42 19.7837 30.1745 17.5564 29.929C17.3117 30.133 17.0737 30.3437 16.8413 30.5644C15.7877 31.9115 14.7766 33.2935 13.81 34.7083C13.7404 34.8411 13.6709 34.977 13.6013 35.1159C27.9434 33.3857 59.3472 32.1503 81.1079 33.6351C86.974 33.9864 92.4502 34.7271 97.88 35.4616C103.895 36.2752 109.853 37.0811 116.22 37.3412C124.203 37.7098 131.907 37.6633 139.542 37.6172C142.055 37.6021 144.561 37.587 147.067 37.5867C146.203 36.1967 145.297 34.8353 144.351 33.5043Z" fill="#00ADEF"/>
<path d="M148.681 40.3028C146.802 40.302 144.929 40.2956 143.063 40.2893C133.042 40.2553 123.222 40.222 113.746 41.0434C109.512 41.3469 105.443 41.8137 101.403 42.2771C95.5355 42.95 89.7314 43.6158 83.5799 43.7635C58.6646 44.7471 33.7508 45.242 8.83539 43.039C7.84285 44.9588 6.92625 46.9241 6.08955 48.9311C27.6762 46.1981 49.6242 46.7146 71.4698 47.2286L71.5216 47.2298C75.132 47.3148 78.7417 47.3997 82.3444 47.4697C119.188 50.9263 123.639 50.9263 153.559 50.9263C152.956 49.5235 152.353 48.0385 151.751 46.5544C151.496 45.9245 151.24 45.2947 150.985 44.6713C150.261 43.1887 149.493 41.732 148.681 40.3028Z" fill="#00ADEF"/>
<path d="M154.701 53.6459C152.449 53.6457 150.259 53.6384 148.118 53.6314H148.113C137.6 53.5968 128.24 53.5659 118.196 54.3863C112.551 54.5031 108.415 55.0113 103.689 55.5924C98.4782 56.2328 92.5487 56.9616 83.0841 57.352C56.6272 58.5873 29.4256 58.3379 3.70877 56.3621C3.02391 57.7333 2.69411 58.9864 2.30869 60.4507C2.26225 60.6272 2.21501 60.8066 2.16624 60.9898C2.04424 61.5014 1.92719 62.0149 1.81513 62.5303C4.25272 62.2765 6.66245 61.9376 9.05366 61.6013C13.6654 60.9528 18.2095 60.3137 22.7504 60.3137C26.3048 60.2785 29.8541 60.2329 33.3998 60.1875L33.402 60.1874L33.4062 60.1874C54.5231 59.9165 75.5116 59.6474 96.6831 61.5491H96.686C99.4046 61.8282 102.163 62.1662 104.95 62.5076C112.046 63.3772 119.327 64.2693 126.607 64.2693H157.543C156.837 60.6336 155.884 57.0864 154.701 53.6459Z" fill="#00ADEF"/>
<path d="M157.557 94.6546C138.258 94.6546 124.253 94.6566 107.816 94.904C96.7069 95.257 85.8497 96.236 74.9747 97.2168C70.5991 97.6113 66.2195 98.0063 61.8202 98.3608C47.5941 99.2171 33.7256 97.937 19.8839 96.6593C13.7741 96.0954 7.66845 95.5319 1.54053 95.1529C2.17207 98.3157 2.99127 101.411 3.98605 104.426C5.34046 104.674 11.5267 104.077 19.4141 103.316L19.4158 103.315C31.2744 102.171 46.9785 100.655 55.8875 101.081C63.5145 101.325 71.0811 102.182 78.6776 103.043C86.3487 103.911 94.0509 104.784 101.879 105.033H154.797C154.818 104.984 154.839 104.936 154.86 104.887C155.978 101.569 156.882 98.1524 157.557 94.6546Z" fill="#00ADEF"/>
<path d="M153.817 107.795C153.821 107.765 153.817 107.75 153.806 107.75C148.698 107.75 143.591 107.735 138.484 107.719L138.477 107.719H138.475C123.062 107.674 107.65 107.628 92.2365 107.999C86.2992 108.086 80.362 108.358 74.4247 108.63C63.5473 109.128 52.6693 109.626 41.791 108.985L38.3579 108.85C27.0135 108.403 16.2071 107.977 5.19704 107.75C5.23377 107.875 5.27049 107.998 5.30724 108.12C6.64215 111.578 8.2119 114.92 9.99691 118.125C14.3101 117.997 18.7381 117.821 23.2282 117.642C36.2135 117.126 49.7289 116.589 62.5618 117.138C82.1912 118.006 100.721 118.022 121.411 118.039H121.412C130.143 118.047 139.258 118.055 149.002 118.127C149.83 116.639 150.613 115.122 151.347 113.578C151.688 112.843 152.026 112.104 152.336 111.411C152.859 110.221 153.353 109.015 153.817 107.795Z" fill="#00ADEF"/>
<path d="M147.265 121.092C128.503 121.001 111.144 121.182 94.4221 121.357C66.2309 121.652 39.8512 121.929 11.6247 120.843C11.677 120.954 11.731 121.065 11.7866 121.176C13.4985 123.952 15.3763 126.614 17.4061 129.149C18.3708 130.269 19.0434 130.972 19.0434 130.972H139.959C139.959 130.972 143.58 126.404 146.304 122.615C146.63 122.112 146.95 121.604 147.265 121.092Z" fill="#00ADEF"/>
<path d="M136.733 134.678H22.2665C23.143 135.587 24.0409 136.475 24.9594 137.341C28.8737 140.84 34.3726 144.81 34.3726 144.81H124.379C128.584 142.6 135.16 136.236 136.5 134.918C136.578 134.838 136.656 134.758 136.733 134.678Z" fill="#00ADEF"/>
<path d="M119.418 148.267H39.582C51.2809 155.073 64.8749 158.978 79.3794 159C92.1176 158.981 104.875 155.878 116.22 149.502C117.457 149.298 118.178 148.921 118.954 148.514C119.07 148.454 119.187 148.393 119.307 148.332C119.344 148.31 119.381 148.288 119.418 148.267Z" fill="#00ADEF"/>
<path d="M1.64062 67.9154H6.36327V86.4533H17.5565V90.5166H1.64062V67.9154Z" fill="#ED1C24"/>
<path d="M20.4699 67.9154H25.1618V90.5166H20.4699V67.9154Z" fill="#ED1C24"/>
<path d="M45.3097 80.642H34.3311V86.4533H46.8431V90.5166H29.7158V67.9154H46.2911V71.9174H34.3311V76.7167H45.3097V80.642Z" fill="#ED1C24"/>
<path d="M60.8423 90.5166H50.5997V67.9154H61.5783C64.3485 67.9563 66.3112 68.7587 67.4663 70.3227C68.1614 71.2836 68.5089 72.4336 68.5089 73.7727C68.5089 75.1527 68.1614 76.2618 67.4663 77.1C67.0778 77.5703 66.5054 77.9996 65.749 78.388C66.9041 78.8071 67.7729 79.4716 68.3556 80.3813C68.9485 81.2911 69.2449 82.3951 69.2449 83.6933C69.2449 85.0324 68.9076 86.2335 68.2329 87.2966C67.8036 88.002 67.2669 88.5949 66.6229 89.0753C65.8972 89.6273 65.0385 90.0055 64.047 90.21C63.0656 90.4144 61.9974 90.5166 60.8423 90.5166ZM60.735 80.5653H55.1077V86.5913H60.6583C61.6499 86.5913 62.4216 86.4584 62.9736 86.1927C63.9754 85.702 64.4763 84.7615 64.4763 83.3713C64.4763 82.1958 63.9907 81.3882 63.0196 80.9487C62.4779 80.7033 61.7163 80.5756 60.735 80.5653ZM63.081 76.2567C63.6943 75.8887 64.001 75.2294 64.001 74.2787C64.001 73.2258 63.5921 72.5307 62.7743 72.1934C62.069 71.9583 61.1694 71.8407 60.0756 71.8407H55.1077V76.824H60.6583C61.6499 76.824 62.4574 76.6349 63.081 76.2567Z" fill="#ED1C24"/>
<path d="M89.1628 88.83C87.4762 90.3735 85.3193 91.1453 82.6922 91.1453C79.4415 91.1453 76.886 90.1026 75.0256 88.0173C73.1651 85.9218 72.2349 83.0493 72.2349 79.4C72.2349 75.4543 73.2929 72.4132 75.4089 70.2767C77.2489 68.4163 79.5898 67.4861 82.4315 67.4861C86.2342 67.4861 89.0146 68.7332 90.7728 71.2274C91.7439 72.6278 92.2653 74.0334 92.3368 75.444H87.6142C87.3075 74.3605 86.914 73.5427 86.4335 72.9907C85.5748 72.0094 84.3022 71.5187 82.6155 71.5187C80.8982 71.5187 79.5438 72.2138 78.5522 73.6041C77.5607 74.984 77.0649 76.9416 77.0649 79.4767C77.0649 82.0118 77.5862 83.9131 78.6289 85.1807C79.6818 86.438 81.0158 87.0666 82.6309 87.0666C84.2869 87.0666 85.5493 86.5249 86.4182 85.4413C86.8986 84.8587 87.2973 83.9847 87.6142 82.8193H92.2908C91.8819 85.2829 90.8393 87.2864 89.1628 88.83Z" fill="#ED1C24"/>
<path d="M109.387 90.5166V80.4273H100.555V90.5166H95.8788V67.9154H100.555V76.5327H109.387V67.9154H114.079V90.5166H109.387Z" fill="#ED1C24"/>
<path d="M134.335 80.642H123.356V86.4533H135.868V90.5166H118.741V67.9154H135.316V71.9174H123.356V76.7167H134.335V80.642Z" fill="#ED1C24"/>
<path d="M157.825 90.5166H153.102L143.872 74.4627V90.5166H139.471V67.9154H144.424L153.424 83.6933V67.9154H157.825V90.5166Z" fill="#ED1C24"/>
</svg>
