<svg viewBox="0 0 200 200" fill="none" xmlns="http://www.w3.org/2000/svg">
<g clip-path="url(#clip0_812_344)">
<rect y="-1" width="200" height="12" fill="black"/>
<rect y="15" width="200" height="14" fill="black"/>
<rect y="33" width="200" height="20" fill="black"/>
<rect y="57" width="200" height="24" fill="black"/>
<path d="M0 85.5444H6.04752V109.051H20.3809V114.203H0V85.5444Z" fill="black"/>
<path d="M24.1115 85.5444H30.1198V114.203H24.1115V85.5444Z" fill="black"/>
<path d="M55.9199 101.682H41.8614V109.051H57.8834V114.203H35.9513V85.5444H57.1765V90.6189H41.8614V96.7045H55.9199V101.682Z" fill="black"/>
<path d="M75.8099 114.203H62.6939V85.5444H76.7524C80.2998 85.5962 82.813 86.6137 84.2922 88.5969C85.1823 89.8153 85.6273 91.2735 85.6273 92.9715C85.6273 94.7213 85.1823 96.1277 84.2922 97.1905C83.7948 97.7868 83.0617 98.3312 82.0931 98.8237C83.5722 99.3552 84.6849 100.198 85.431 101.351C86.1902 102.505 86.5698 103.905 86.5698 105.551C86.5698 107.249 86.1378 108.772 85.2739 110.12C84.7241 111.014 84.0369 111.766 83.2122 112.375C82.2829 113.075 81.1833 113.555 79.9136 113.814C78.657 114.073 77.2891 114.203 75.8099 114.203ZM75.6725 101.585H68.4665V109.226H75.5743C76.844 109.226 77.8323 109.057 78.5392 108.72C79.822 108.098 80.4634 106.905 80.4634 105.143C80.4634 103.652 79.8416 102.628 78.5981 102.071C77.9043 101.76 76.9291 101.598 75.6725 101.585ZM78.6766 96.1212C79.462 95.6546 79.8547 94.8185 79.8547 93.6131C79.8547 92.278 79.3311 91.3966 78.2839 90.9689C77.3807 90.6708 76.2288 90.5217 74.8282 90.5217H68.4665V96.8406H75.5743C76.844 96.8406 77.8781 96.6008 78.6766 96.1212Z" fill="black"/>
<path d="M112.075 112.064C109.916 114.021 107.154 115 103.79 115C99.6269 115 96.3545 113.678 93.9721 111.034C91.5898 108.377 90.3986 104.734 90.3986 100.107C90.3986 95.1037 91.7534 91.2476 94.463 88.5386C96.8192 86.1795 99.8167 85 103.456 85C108.325 85 111.886 86.5813 114.137 89.744C115.381 91.5198 116.048 93.302 116.14 95.0907H110.092C109.7 93.7168 109.196 92.6798 108.58 91.9799C107.481 90.7356 105.851 90.1134 103.691 90.1134C101.492 90.1134 99.7578 90.9948 98.4881 92.7576C97.2184 94.5075 96.5835 96.9896 96.5835 100.204C96.5835 103.419 97.2511 105.83 98.5863 107.437C99.9346 109.031 101.643 109.828 103.711 109.828C105.832 109.828 107.448 109.141 108.561 107.767C109.176 107.029 109.686 105.92 110.092 104.443H116.081C115.557 107.566 114.222 110.107 112.075 112.064Z" fill="black"/>
<path d="M137.974 114.203V101.41H126.664V114.203H120.675V85.5444H126.664V96.4712H137.974V85.5444H143.982V114.203H137.974Z" fill="black"/>
<path d="M169.919 101.682H155.861V109.051H171.883V114.203H149.951V85.5444H171.176V90.6189H155.861V96.7045H169.919V101.682Z" fill="black"/>
<path d="M200 114.203H193.952L182.132 93.8464V114.203H176.497V85.5444H182.839L194.365 105.551V85.5444H200V114.203Z" fill="black"/>
<rect y="119" width="200" height="24" fill="black"/>
<rect y="147" width="200" height="20" fill="black"/>
<rect y="171" width="200" height="14" fill="black"/>
<rect y="189" width="200" height="12" fill="black"/>
</g>
<defs>
<clipPath id="clip0_812_344">
<rect width="200" height="200" rx="100" fill="white"/>
</clipPath>
</defs>
</svg>
