<svg width="263" height="41" viewBox="0 0 263 41" fill="none" xmlns="http://www.w3.org/2000/svg">
<path d="M0.751587 0.904317H8.67216V31.9951H27.4449V38.8099H0.751587V0.904317Z" fill="#ED1C24"/>
<path d="M32.331 0.904317H40.2002V38.8099H32.331V0.904317Z" fill="#ED1C24"/>
<path d="M73.9912 22.2487H55.5784V31.9951H76.5628V38.8099H47.8379V0.904317H75.637V7.61623H55.5784V15.6654H73.9912V22.2487Z" fill="#ED1C24"/>
<path d="M100.042 38.8099H82.8632V0.904317H101.276C105.922 0.972894 109.214 2.31871 111.151 4.94175C112.317 6.5533 112.9 8.48201 112.9 10.7279C112.9 13.0423 112.317 14.9025 111.151 16.3083C110.5 17.0969 109.539 17.817 108.271 18.4685C110.208 19.1714 111.665 20.2857 112.643 21.8116C113.637 23.3374 114.134 25.1889 114.134 27.3662C114.134 29.6121 113.568 31.6265 112.437 33.4095C111.717 34.5925 110.817 35.5868 109.737 36.3926C108.519 37.3184 107.079 37.9527 105.416 38.2956C103.77 38.6385 101.979 38.8099 100.042 38.8099ZM99.8616 22.1201H90.4238V32.2266H99.733C101.396 32.2266 102.69 32.0037 103.616 31.558C105.296 30.7351 106.136 29.1578 106.136 26.8262C106.136 24.8546 105.322 23.5002 103.693 22.763C102.785 22.3516 101.507 22.1373 99.8616 22.1201ZM103.796 14.8939C104.825 14.2767 105.339 13.1709 105.339 11.5765C105.339 9.81068 104.653 8.64488 103.282 8.07912C102.099 7.68481 100.59 7.48765 98.7558 7.48765H90.4238V15.8454H99.733C101.396 15.8454 102.75 15.5282 103.796 14.8939Z" fill="#ED1C24"/>
<path d="M147.539 35.9812C144.711 38.5699 141.093 39.8643 136.687 39.8643C131.235 39.8643 126.949 38.1156 123.829 34.6182C120.709 31.1037 119.149 26.2862 119.149 20.1657C119.149 13.5481 120.923 8.44772 124.472 4.8646C127.558 1.74438 131.484 0.184265 136.25 0.184265C142.628 0.184265 147.291 2.27585 150.24 6.45901C151.868 8.80775 152.743 11.1651 152.863 13.5309H144.942C144.428 11.7137 143.768 10.3421 142.962 9.41636C141.522 7.77053 139.387 6.94761 136.559 6.94761C133.678 6.94761 131.407 8.11341 129.744 10.445C128.081 12.7595 127.249 16.0426 127.249 20.2943C127.249 24.546 128.124 27.7348 129.872 29.8607C131.638 31.9694 133.876 33.0238 136.584 33.0238C139.362 33.0238 141.479 32.1152 142.936 30.2979C143.742 29.3207 144.411 27.8548 144.942 25.9004H152.785C152.1 30.0321 150.351 33.3924 147.539 35.9812Z" fill="#ED1C24"/>
<path d="M181.459 38.8099V21.8887H166.646V38.8099H158.803V0.904317H166.646V15.3568H181.459V0.904317H189.328V38.8099H181.459Z" fill="#ED1C24"/>
<path d="M223.299 22.2487H204.886V31.9951H225.871V38.8099H197.146V0.904317H224.945V7.61623H204.886V15.6654H223.299V22.2487Z" fill="#ED1C24"/>
<path d="M262.696 38.8099H254.776L239.295 11.8851V38.8099H231.914V0.904317H240.22L255.316 27.3662V0.904317H262.696V38.8099Z" fill="#ED1C24"/>
</svg>
