<svg width="1010" height="267" viewBox="0 0 1010 267" fill="none" xmlns="http://www.w3.org/2000/svg">
<g clip-path="url(#clip0_445_6944)">
<path d="M1010 0.000102493V17.8605H577.89C577.91 17.8725 577.93 17.8845 577.951 17.8965H524.256C518.047 17.8965 511.974 17.0756 505.646 16.2201C500.945 15.5847 496.103 14.9302 490.96 14.5788C487.067 14.2466 483.143 14.062 479.206 14.0174C475.269 14.062 471.346 14.2466 467.452 14.5788C462.309 14.9302 457.467 15.5847 452.767 16.2201C446.438 17.0756 440.366 17.8965 434.157 17.8965H380.462C380.468 17.893 380.474 17.8895 380.48 17.886L0 18.4717V0L1010 0.000102493Z" fill="#00ADEF"/>
<path d="M0 22.0776V39.8224H351.796C351.776 39.8429 351.755 39.8634 351.735 39.8839C371.301 39.8839 390.447 39.8839 409.18 39.0528C413.413 38.6303 417.618 38.181 421.817 37.7325L421.823 37.7319L421.83 37.7311L421.838 37.7305C427.047 37.1741 432.247 36.6186 437.476 36.1165L437.449 36.1469C438.086 36.0764 438.723 36.0068 439.359 35.9382C445.871 35.3306 452.435 34.815 459.127 34.4916C468.715 33.5943 478.194 33.1809 487.623 33.1548C497.052 33.1809 506.531 33.5943 516.119 34.4916C522.811 34.815 529.375 35.3306 535.887 35.9382C536.523 36.0068 537.16 36.0764 537.797 36.1469L537.77 36.1165C542.999 36.6186 548.198 37.1739 553.407 37.7303L553.416 37.7311L553.422 37.7318C557.623 38.1805 561.831 38.6301 566.066 39.0528C584.799 39.8839 603.945 39.8839 623.511 39.8839C623.506 39.878 623.5 39.872 623.494 39.8661H1010V22.0776H602.101L602.102 22.0795C596.6 22.39 591.423 22.3754 586.246 22.3609C578.741 22.3397 571.235 22.3186 562.738 23.288C550.699 24.551 538.891 25.7753 527.21 26.7387L527.081 26.6423C525.953 26.7755 524.826 26.9014 523.699 27.0204C511.589 27.9645 499.603 28.6029 487.623 28.6866C475.643 28.6029 463.657 27.9645 451.547 27.0204C450.42 26.9014 449.293 26.7755 448.165 26.6423L448.036 26.7387C436.355 25.7753 424.547 24.551 412.508 23.288C404.011 22.3186 396.505 22.3397 389 22.3609C383.828 22.3754 378.656 22.3899 373.161 22.0804L373.162 22.0776H0Z" fill="#00ADEF"/>
<path d="M347.797 45.6884H0V63.2205H352.902V63.2072C363.431 63.2512 374.079 63.21 385.038 62.7053C395.755 62.2685 405.784 60.9153 415.909 59.5491L415.911 59.5489C419.089 59.12 422.276 58.6899 425.497 58.2865C441.307 56.7602 464.864 55.5829 488.465 55.3947C512.065 55.5829 535.622 56.7602 551.432 58.2865C554.653 58.6899 557.841 59.12 561.019 59.5489L561.02 59.5491C571.145 60.9153 581.174 62.2685 591.891 62.7053C602.054 63.1733 611.948 63.2427 621.728 63.2153V63.2205H1010V45.5871H621.728V45.6327C619.838 45.6114 617.933 45.5864 616.016 45.5611L615.912 45.5598C610.472 45.4881 604.931 45.4151 599.348 45.4229C591.207 45.4118 582.965 45.5553 574.804 46.1094C568.875 46.6991 563.569 47.6557 557.88 48.3935L556.384 48.5851C557.78 49.5257 558.3 49.8766 556.384 48.5851L555.126 48.6981C546.228 49.8369 537.491 50.8516 528.623 51.0828C515.117 51.646 501.782 51.8704 488.465 51.8709C475.147 51.8704 461.812 51.646 448.307 51.0828C439.439 50.8516 430.702 49.8369 421.803 48.6981C421.338 48.6386 420.872 48.5787 420.406 48.5186C419.858 48.4479 419.31 48.377 418.761 48.3058L417.843 48.1868L417.833 48.1856C412.144 47.4477 406.371 46.6991 400.442 46.1094C388.904 45.3261 377.202 45.3633 365.856 45.4981C364.237 45.5174 362.626 45.5386 361.023 45.5597L360.899 45.5613C359.743 45.5765 358.592 45.5917 357.446 45.606C356.13 45.6224 354.822 45.6376 353.521 45.6505L353.034 45.6552C351.273 45.6718 349.527 45.6839 347.797 45.6884Z" fill="#00ADEF"/>
<path d="M0 67.6331H332.702V67.6759C335.071 67.6718 337.434 67.664 339.79 67.6561L339.852 67.6558C356.722 67.5987 373.252 67.5427 389.203 68.922C396.328 69.4316 403.18 70.2155 409.98 70.9936L409.982 70.9938C415.124 71.5822 420.238 72.1673 425.42 72.6281C427.948 72.8331 430.476 73.0221 433.004 73.1959C435.305 73.3321 437.629 73.4335 439.982 73.4899C457.827 74.1925 475.671 74.7467 493.515 74.8666C511.359 74.7467 529.203 74.1925 547.047 73.4899C549.401 73.4335 551.724 73.3321 554.025 73.1959C556.553 73.0221 559.081 72.8331 561.609 72.6281C566.792 72.1673 571.906 71.5821 577.049 70.9936C583.85 70.2155 590.7 69.4316 597.827 68.922C613.777 67.5427 630.308 67.5987 647.178 67.6558L647.239 67.6561C648.832 67.6614 650.429 67.6667 652.028 67.6709V67.6331H1010V85.5179H652.028V85.5135C619.41 85.477 606.032 85.1397 570.366 82.0268L570.425 82.1674C569.033 81.9917 567.641 81.824 566.248 81.6639C560.596 81.1614 554.399 80.5934 547.514 79.9513C546.137 79.8556 544.76 79.7659 543.381 79.6821C537.85 79.5711 532.31 79.4411 526.768 79.311L526.661 79.3085C515.621 79.0493 504.565 78.7898 493.515 78.6777C482.468 78.7898 471.415 79.0492 460.378 79.3083L460.368 79.3085L460.267 79.3109L460.25 79.3112L460.247 79.3113C454.71 79.4413 449.174 79.5712 443.648 79.6821C442.27 79.7659 440.892 79.8556 439.515 79.9513C432.63 80.5934 426.434 81.1614 420.781 81.6639C419.388 81.824 417.996 81.9917 416.604 82.1674L416.663 82.0268C380.171 85.2118 367.012 85.4911 332.702 85.5156V85.5179H0V67.6331Z" fill="#00ADEF"/>
<path d="M0 90.0377H332.702V90.056C349.853 90.0005 365.235 89.9856 381.711 91.3281C391.214 91.5241 398.173 92.3774 406.129 93.3528L406.136 93.3537C414.906 94.4291 424.887 95.6529 440.817 96.3082C456.32 97.0303 471.975 97.4503 487.623 97.5511C503.271 97.4503 518.926 97.0303 534.429 96.3082C550.359 95.6529 560.34 94.4291 569.11 93.3537L569.113 93.3533L569.117 93.3528C577.073 92.3774 584.032 91.5241 593.534 91.3281C610.442 89.9505 626.198 90.0022 643.894 90.0604H643.902L644.071 90.0609H644.085C646.687 90.0694 649.332 90.0781 652.028 90.0823V90.0377H1010V107.924L607.693 107.924C595.439 107.924 583.185 106.426 571.24 104.966L571.236 104.966C566.545 104.392 561.902 103.825 557.326 103.356C538.263 101.648 519.29 100.983 500.325 100.803C496.09 100.771 491.856 100.751 487.623 100.749C483.39 100.751 479.156 100.771 474.921 100.803C455.956 100.983 436.983 101.648 417.92 103.356C413.344 103.825 408.701 104.392 404.01 104.966L404.006 104.966C392.061 106.426 379.807 107.924 367.553 107.924L0 107.924V90.0377Z" fill="#00ADEF"/>
<path d="M1010 158.948V176.376H577.85C564.673 175.958 551.708 174.493 538.795 173.034C530.91 172.143 523.044 171.254 515.162 170.608C507.353 170.051 499.868 169.664 493.515 169.621C487.161 169.664 479.676 170.051 471.867 170.608C463.985 171.254 456.119 172.143 448.234 173.034C435.322 174.493 422.356 175.958 409.179 176.376H0V158.948H325.275C352.868 158.953 374.381 158.995 399.186 159.367C417.885 159.96 436.162 161.604 454.468 163.251C461.833 163.914 469.206 164.577 476.611 165.172L477.015 165.196C482.494 165.462 487.992 165.624 493.515 165.638C499.038 165.624 504.535 165.462 510.014 165.196L510.418 165.172C517.823 164.577 525.196 163.914 532.561 163.251C550.868 161.604 569.144 159.96 587.843 159.367C609.659 159.04 628.929 158.968 652.028 158.953V158.948H1010Z" fill="#00ADEF"/>
<path d="M1010 180.937H571.928C553.394 181.318 535.203 182.035 516.106 182.786L510.327 183.013C492.016 184.088 473.705 183.252 455.396 182.416L455.394 182.416C445.4 181.959 435.405 181.503 425.411 181.357C399.466 180.733 373.521 180.81 347.574 180.887H347.561L347.552 180.887L347.544 180.888C342.854 180.901 338.164 180.915 333.474 180.925C330.719 180.931 327.964 180.935 325.208 180.937H0V198.364L346.41 198.273C356.729 198.234 366.652 198.225 376.297 198.217L376.301 198.217C411.131 198.187 442.322 198.161 475.363 196.703C496.964 195.781 519.714 196.684 541.572 197.551L541.575 197.551C549.02 197.846 556.364 198.137 563.522 198.351L563.516 198.364H1010V180.937Z" fill="#00ADEF"/>
<path d="M1010 202.926V219.934H0V202.926L368.005 203.342C386.526 203.421 404.334 203.607 421.731 203.789L421.735 203.789C468.524 204.277 512.348 204.735 559.111 203.001L559.18 202.926H1010Z" fill="#00ADEF"/>
<path d="M1010 226.157H0V243.166H1010V226.157Z" fill="#00ADEF"/>
<path d="M1010 248.942H0V267H1010V248.942Z" fill="#00ADEF"/>
</g>
<defs>
<clipPath id="clip0_445_6944">
<rect width="1010" height="267" fill="white"/>
</clipPath>
</defs>
</svg>
